HIERARCHY
ROOT Root
{
  OFFSET 0.0 0.0 0.0
  CHANNELS 6 Xposition Yposition Zposition Zrotation Yrotation Xrotation
  JOINT Hips
  {
    OFFSET 0.0 100.0 0.0
    CHANNELS 6 Xposition Yposition Zposition Zrotation Yrotation Xrotation
    JOINT Spine1
    {
      OFFSET 5.003913 -0.037094 -0.013727
      CHANNELS 3 Zrotation Yrotation Xrotation
      JOINT Spine2
      {
        OFFSET 7.125363 -1e-06 0.0
        CHANNELS 3 Zrotation Yrotation Xrotation
        JOINT Chest
        {
          OFFSET 7.594027 1e-06 0.0
          CHANNELS 3 Zrotation Yrotation Xrotation
          JOINT Neck1
          {
            OFFSET 26.313086 -0.460272 -0.181672
            CHANNELS 3 Zrotation Yrotation Xrotation
            JOINT Neck2
            {
              OFFSET 8.045911 0.0 0.0
              CHANNELS 3 Zrotation Yrotation Xrotation
              JOINT Head
              {
                OFFSET 6.432774 0.0 0.0
                CHANNELS 3 Zrotation Yrotation Xrotation
                JOINT HeadEnd
                {
                  OFFSET 16.169773 0.06451 0.00362
                  CHANNELS 3 Zrotation Yrotation Xrotation
                }
                JOINT Jaw
                {
                  OFFSET 0.108741 3.12938 0.002639
                  CHANNELS 3 Zrotation Yrotation Xrotation
                }
                JOINT LeftEye
                {
                  OFFSET 4.45173 8.166359 3.206392
                  CHANNELS 3 Zrotation Yrotation Xrotation
                }
                JOINT RightEye
                {
                  OFFSET 4.436895 8.135758 -3.222429
                  CHANNELS 3 Zrotation Yrotation Xrotation
                }
              }
            }
          }
          JOINT LeftShoulder
          {
            OFFSET 23.218927 5.195579 1.621656
            CHANNELS 3 Zrotation Yrotation Xrotation
            JOINT LeftArm
            {
              OFFSET 15.902118 2e-06 -2e-06
              CHANNELS 3 Zrotation Yrotation Xrotation
              JOINT LeftForeArm
              {
                OFFSET 28.739307 0.0 -1e-06
                CHANNELS 3 Zrotation Yrotation Xrotation
                JOINT LeftHand
                {
                  OFFSET 27.093981 -4e-06 0.0
                  CHANNELS 3 Zrotation Yrotation Xrotation
                  JOINT LeftHandThumb1
                  {
                    OFFSET 2.276781 3.380274 0.83384
                    CHANNELS 3 Zrotation Yrotation Xrotation
                    JOINT LeftHandThumb2
                    {
                      OFFSET 4.705309 -1e-06 -1e-06
                      CHANNELS 3 Zrotation Yrotation Xrotation
                      JOINT LeftHandThumb3
                      {
                        OFFSET 2.798515 0.0 3e-06
                        CHANNELS 3 Zrotation Yrotation Xrotation
                        JOINT LeftHandThumbEnd
                        {
                          OFFSET 3.180793 4e-06 -4e-06
                          CHANNELS 3 Zrotation Yrotation Xrotation
                        }
                      }
                    }
                  }
                  JOINT LeftHandIndex1
                  {
                    OFFSET 3.247786 2.352677 0.137192
                    CHANNELS 3 Zrotation Yrotation Xrotation
                    JOINT LeftHandIndex2
                    {
                      OFFSET 6.367095 1e-06 0.0
                      CHANNELS 3 Zrotation Yrotation Xrotation
                      JOINT LeftHandIndex3
                      {
                        OFFSET 3.662364 0.0 0.0
                        CHANNELS 3 Zrotation Yrotation Xrotation
                        JOINT LeftHandIndex4
                        {
                          OFFSET 2.329242 4e-06 -4e-06
                          CHANNELS 3 Zrotation Yrotation Xrotation
                          JOINT LeftHandIndexEnd
                          {
                            OFFSET 2.767823 1e-06 0.0
                            CHANNELS 3 Zrotation Yrotation Xrotation
                          }
                        }
                      }
                    }
                  }
                  JOINT LeftHandMiddle1
                  {
                    OFFSET 3.163612 0.945023 -0.406112
                    CHANNELS 3 Zrotation Yrotation Xrotation
                    JOINT LeftHandMiddle2
                    {
                      OFFSET 6.276789 3e-06 0.0
                      CHANNELS 3 Zrotation Yrotation Xrotation
                      JOINT LeftHandMiddle3
                      {
                        OFFSET 4.35652 -1e-06 4e-06
                        CHANNELS 3 Zrotation Yrotation Xrotation
                        JOINT LeftHandMiddle4
                        {
                          OFFSET 2.996877 0.0 8e-06
                          CHANNELS 3 Zrotation Yrotation Xrotation
                          JOINT LeftHandMiddleEnd
                          {
                            OFFSET 2.323256 3e-06 -4e-06
                            CHANNELS 3 Zrotation Yrotation Xrotation
                          }
                        }
                      }
                    }
                  }
                  JOINT LeftHandRing1
                  {
                    OFFSET 2.882606 -0.309162 0.107445
                    CHANNELS 3 Zrotation Yrotation Xrotation
                    JOINT LeftHandRing2
                    {
                      OFFSET 6.033198 0.0 4e-06
                      CHANNELS 3 Zrotation Yrotation Xrotation
                      JOINT LeftHandRing3
                      {
                        OFFSET 4.350578 3e-06 0.0
                        CHANNELS 3 Zrotation Yrotation Xrotation
                        JOINT LeftHandRing4
                        {
                          OFFSET 2.651321 2e-06 -7e-06
                          CHANNELS 3 Zrotation Yrotation Xrotation
                          JOINT LeftHandRingEnd
                          {
                            OFFSET 1.937663 1e-06 -4e-06
                            CHANNELS 3 Zrotation Yrotation Xrotation
                          }
                        }
                      }
                    }
                  }
                  JOINT LeftHandPinky1
                  {
                    OFFSET 2.865315 -1.525436 0.575687
                    CHANNELS 3 Zrotation Yrotation Xrotation
                    JOINT LeftHandPinky2
                    {
                      OFFSET 5.54936 1e-06 -8e-06
                      CHANNELS 3 Zrotation Yrotation Xrotation
                      JOINT LeftHandPinky3
                      {
                        OFFSET 3.070974 0.0 -4e-06
                        CHANNELS 3 Zrotation Yrotation Xrotation
                        JOINT LeftHandPinky4
                        {
                          OFFSET 1.549672 1e-06 0.0
                          CHANNELS 3 Zrotation Yrotation Xrotation
                          JOINT LeftHandPinkyEnd
                          {
                            OFFSET 1.952123 0.0 0.0
                            CHANNELS 3 Zrotation Yrotation Xrotation
                          }
                        }
                      }
                    }
                  }
                }
              }
            }
          }
          JOINT RightShoulder
          {
            OFFSET 23.161716 5.296122 -1.380114
            CHANNELS 3 Zrotation Yrotation Xrotation
            JOINT RightArm
            {
              OFFSET -16.027195 -2e-06 1.1e-05
              CHANNELS 3 Zrotation Yrotation Xrotation
              JOINT RightForeArm
              {
                OFFSET -28.736639 4e-06 2e-06
                CHANNELS 3 Zrotation Yrotation Xrotation
                JOINT RightHand
                {
                  OFFSET -27.133619 6e-06 0.0
                  CHANNELS 3 Zrotation Yrotation Xrotation
                  JOINT RightHandThumb1
                  {
                    OFFSET -2.274328 -3.351035 -0.83067
                    CHANNELS 3 Zrotation Yrotation Xrotation
                    JOINT RightHandThumb2
                    {
                      OFFSET -4.703594 -3e-06 2e-06
                      CHANNELS 3 Zrotation Yrotation Xrotation
                      JOINT RightHandThumb3
                      {
                        OFFSET -2.794935 -4e-06 -3e-06
                        CHANNELS 3 Zrotation Yrotation Xrotation
                        JOINT RightHandThumbEnd
                        {
                          OFFSET -3.183852 4e-06 1e-06
                          CHANNELS 3 Zrotation Yrotation Xrotation
                        }
                      }
                    }
                  }
                  JOINT RightHandIndex1
                  {
                    OFFSET -3.253496 -2.33755 -0.127667
                    CHANNELS 3 Zrotation Yrotation Xrotation
                    JOINT RightHandIndex2
                    {
                      OFFSET -6.344434 0.0 0.0
                      CHANNELS 3 Zrotation Yrotation Xrotation
                      JOINT RightHandIndex3
                      {
                        OFFSET -3.654871 0.0 -8e-06
                        CHANNELS 3 Zrotation Yrotation Xrotation
                        JOINT RightHandIndex4
                        {
                          OFFSET -2.327586 -1e-06 0.0
                          CHANNELS 3 Zrotation Yrotation Xrotation
                          JOINT RightHandIndexEnd
                          {
                            OFFSET -2.770001 3e-06 8e-06
                            CHANNELS 3 Zrotation Yrotation Xrotation
                          }
                        }
                      }
                    }
                  }
                  JOINT RightHandMiddle1
                  {
                    OFFSET -3.168223 -0.944764 0.411762
                    CHANNELS 3 Zrotation Yrotation Xrotation
                    JOINT RightHandMiddle2
                    {
                      OFFSET -6.266691 -1e-06 -4e-06
                      CHANNELS 3 Zrotation Yrotation Xrotation
                      JOINT RightHandMiddle3
                      {
                        OFFSET -4.348901 0.0 0.0
                        CHANNELS 3 Zrotation Yrotation Xrotation
                        JOINT RightHandMiddle4
                        {
                          OFFSET -3.00024 2e-06 -4e-06
                          CHANNELS 3 Zrotation Yrotation Xrotation
                          JOINT RightHandMiddleEnd
                          {
                            OFFSET -2.321477 -4e-06 -4e-06
                            CHANNELS 3 Zrotation Yrotation Xrotation
                          }
                        }
                      }
                    }
                  }
                  JOINT RightHandRing1
                  {
                    OFFSET -2.885654 0.293261 -0.119232
                    CHANNELS 3 Zrotation Yrotation Xrotation
                    JOINT RightHandRing2
                    {
                      OFFSET -6.032835 -1e-06 -4e-06
                      CHANNELS 3 Zrotation Yrotation Xrotation
                      JOINT RightHandRing3
                      {
                        OFFSET -4.33881 0.0 -4e-06
                        CHANNELS 3 Zrotation Yrotation Xrotation
                        JOINT RightHandRing4
                        {
                          OFFSET -2.654903 -4e-06 -4e-06
                          CHANNELS 3 Zrotation Yrotation Xrotation
                          JOINT RightHandRingEnd
                          {
                            OFFSET -1.935122 0.0 4e-06
                            CHANNELS 3 Zrotation Yrotation Xrotation
                          }
                        }
                      }
                    }
                  }
                  JOINT RightHandPinky1
                  {
                    OFFSET -2.866241 1.503904 -0.60527
                    CHANNELS 3 Zrotation Yrotation Xrotation
                    JOINT RightHandPinky2
                    {
                      OFFSET -5.553177 -2e-06 0.0
                      CHANNELS 3 Zrotation Yrotation Xrotation
                      JOINT RightHandPinky3
                      {
                        OFFSET -3.062664 -1e-06 -4e-06
                        CHANNELS 3 Zrotation Yrotation Xrotation
                        JOINT RightHandPinky4
                        {
                          OFFSET -1.546529 2e-06 4e-06
                          CHANNELS 3 Zrotation Yrotation Xrotation
                          JOINT RightHandPinkyEnd
                          {
                            OFFSET -1.952341 0.0 -4e-06
                            CHANNELS 3 Zrotation Yrotation Xrotation
                          }
                        }
                      }
                    }
                  }
                }
              }
            }
          }
        }
      }
    }
    JOINT LeftLeg
    {
      OFFSET -8.443107 2.567604 10.043214
      CHANNELS 3 Zrotation Yrotation Xrotation
      JOINT LeftShin
      {
        OFFSET 43.229198 1e-06 -1e-06
        CHANNELS 3 Zrotation Yrotation Xrotation
        JOINT LeftFoot
        {
          OFFSET 42.298611 1e-06 1e-06
          CHANNELS 3 Zrotation Yrotation Xrotation
          JOINT LeftToeBase
          {
            OFFSET 14.165858 1e-06 0.0
            CHANNELS 3 Zrotation Yrotation Xrotation
            JOINT LeftToeEnd
            {
              OFFSET 6.7141 -0.234461 0.0
              CHANNELS 3 Zrotation Yrotation Xrotation
            }
          }
        }
      }
    }
    JOINT RightLeg
    {
      OFFSET -8.303923 2.592729 -10.047278
      CHANNELS 3 Zrotation Yrotation Xrotation
      JOINT RightShin
      {
        OFFSET -43.369682 0.0 1e-06
        CHANNELS 3 Zrotation Yrotation Xrotation
        JOINT RightFoot
        {
          OFFSET -42.260784 4e-06 2e-06
          CHANNELS 3 Zrotation Yrotation Xrotation
          JOINT RightToeBase
          {
            OFFSET -14.222245 -2e-06 -1e-06
            CHANNELS 3 Zrotation Yrotation Xrotation
            JOINT RightToeEnd
            {
              OFFSET -6.660062 0.232574 -2e-06
              CHANNELS 3 Zrotation Yrotation Xrotation
            }
          }
        }
      }
    }
  }
}
MOTION
Frames: 4
Frame Time: 0.03333333333333333
0.0 0.0 0.0 0.0 -0.0 0.0 -5.024825 99.693993 3.205034 91.301239 3.798939 89.794838 -2.595453 0.289089 0.210208 -11.933212 -0.44243 1.07986 19.875492 -1.929545 -0.879047 23.267004 1.751255 2.618565 -2.566268 -0.8091 -0.235062 -30.694899 0.478119 -1.37143 6e-06 0.0 -0.0 0.031163 0.01764 0.035581 0.04035 0.042627 0.041319 0.041243 -0.007549 0.034184 -102.514755 -75.19281 118.698746 50.626961 -60.21072 10.543105 30.617519 -0.093539 -0.012579 -2.353348 1.51918 12.591455 17.636637 -26.322737 52.411205 -19.466665 -14.395602 29.410395 -1e-06 -8.774824 -4e-06 15.95766 -18.091343 6.240328 -0.609776 -1.795654 -3.889326 -4.80709 -11.046811 -2.93785 7e-06 -20.976019 -1e-06 -5.019969 -25.03356 -4.031882 5e-06 -0.0 -0.0 -10.634536 -5.686969 -3.565585 10.57328 -17.922955 -3.113901 4e-06 -13.821206 1e-06 -0.501773 -31.181505 -4.027015 -11.499471 -59.770378 7.633739 -13.982717 -7.150197 -2.875043 13.772733 -8.401492 -3.218243 0.347737 -34.211555 0.771656 -0.963028 -17.73337 2.621021 1e-06 1e-06 0.0 -17.346422 -20.095217 -4.201782 21.757561 -1.638378 3.866428 1e-06 -6.338824 1e-06 -1.697587 -22.591749 -6.194006 -0.0 -4e-06 -2e-06 46.627151 -78.131371 150.815903 39.208069 -64.648468 -5.231789 32.212273 0.057128 0.107655 -0.260578 0.184803 9.808501 22.182112 -20.375898 49.933327 -16.701817 -16.74353 28.476536 -5e-06 -12.690601 -1e-06 16.014442 -17.518658 2.629218 -0.10592 -1.513856 -4.275884 -5.039042 -5.612873 -2.953557 6e-06 -11.020527 -3e-06 -6.111297 -15.895334 -3.840469 -0.0 -1e-06 -1e-06 -10.283373 -5.680288 -4.341837 11.028298 -11.302407 -2.372636 -1.384267 -14.238585 -6.32012 -0.625434 -26.924194 -3.8276 -4.145472 -49.485447 -3.758685 -13.708527 -7.363475 -3.720939 18.141157 -14.052744 -3.242678 9e-06 -18.787271 -1e-06 -0.429713 -8.456044 2.555505 0.0 -1e-06 0.0 -15.923532 -20.094484 -5.473586 30.419218 -7.19083 1.735921 4e-06 -8.162929 0.0 -1.861898 -22.861473 -6.167944 -0.0 -3e-06 0.0 -170.957733 -3.208055 -14.644148 5.778152 0.025984 -0.010978 -77.566727 -2.366802 -11.411125 -4.092797 1.507893 2.185633 -1.0 -1e-06 0.0 7.20979 -7.655607 -15.849548 8.591506 0.014696 -0.125387 -79.026184 -2.060276 -9.77084 -4.187943 0.559541 1.624084 -1.000001 1e-06 0.0 
0.0 0.0 0.0 0.0 -0.0 0.0 -5.023674 99.715271 3.156421 91.293686 3.752615 89.798721 -2.586637 0.27378 0.220316 -11.917471 -0.420381 1.117248 19.808815 -1.903907 -0.937908 23.229954 1.788804 2.628149 -2.556288 -0.819317 -0.22821 -30.696106 0.437791 -1.383793 6e-06 0.0 -0.0 0.02658 0.015032 0.049025 0.045431 0.040002 0.055069 0.045769 -0.010016 0.046399 -102.392723 -75.220207 118.568428 50.694782 -60.233219 10.445458 30.614388 -0.074754 -0.067992 -2.282562 1.45167 12.668207 17.636633 -26.322748 52.411213 -19.466665 -14.395598 29.410398 -1e-06 -8.774824 -4e-06 15.908238 -18.064135 6.246036 -0.609777 -1.795655 -3.889328 -4.80709 -11.046813 -2.937847 4e-06 -20.976021 1e-06 -5.019974 -25.033566 -4.03188 6e-06 -0.0 -1e-06 -10.634535 -5.686971 -3.565586 10.573275 -17.922955 -3.1139 3e-06 -13.821212 -0.0 -0.501777 -31.181511 -4.027015 -11.414628 -59.734272 7.632827 -13.982718 -7.150198 -2.875044 13.772731 -8.401494 -3.21824 0.347734 -34.211555 0.771659 -0.963032 -17.733376 2.621022 1e-06 1e-06 0.0 -17.346422 -20.095219 -4.201779 21.757559 -1.638376 3.86643 1e-06 -6.338825 1e-06 -1.697588 -22.591751 -6.194005 0.0 -3e-06 -2e-06 46.650089 -78.155579 150.843643 39.438778 -64.614403 -5.55973 32.098083 0.069006 0.102418 -0.194724 0.065079 9.656085 22.18211 -20.375895 49.933319 -16.701811 -16.74353 28.47653 -3e-06 -12.690601 -1e-06 16.026083 -17.523308 2.605136 -0.105919 -1.513856 -4.275881 -5.03904 -5.612871 -2.953557 5e-06 -11.02052 -3e-06 -6.111298 -15.89533 -3.840469 -1e-06 -1e-06 -2e-06 -10.283371 -5.680288 -4.341836 11.028296 -11.302404 -2.372635 -1.384269 -14.238581 -6.320121 -0.625439 -26.924187 -3.827602 -4.143723 -49.584782 -3.752342 -13.708524 -7.363476 -3.72094 18.141148 -14.052739 -3.242674 8e-06 -18.78727 -1e-06 -0.429709 -8.456045 2.5555 0.0 -1e-06 1e-06 -15.923536 -20.094482 -5.473586 30.419214 -7.190826 1.735925 2e-06 -8.162925 -2e-06 -1.861901 -22.861473 -6.167942 0.0 -6e-06 -1e-06 -170.995529 -3.232682 -14.640698 5.748557 0.032593 0.043325 -77.476463 -2.344417 -11.529586 -4.135656 1.525976 2.196103 -0.999999 1e-06 -0.0 7.202783 -7.615329 -15.798142 8.425202 0.007997 -0.121048 -78.891571 -2.124357 -9.757179 -4.183999 0.540406 1.622257 -1.000002 -0.0 0.0 
0.0 0.0 0.0 0.0 -0.0 0.0 -5.022006 99.724426 3.113645 91.296089 3.715931 89.813736 -2.578996 0.265596 0.219717 -11.919745 -0.41132 1.126618 19.805281 -1.888723 -0.959306 23.167301 1.813024 2.64099 -2.586541 -0.817142 -0.248057 -30.655777 0.400183 -1.420338 6e-06 -0.0 -0.0 0.019636 0.012998 0.045444 0.031058 0.034058 0.052365 0.034581 -0.008332 0.041098 -102.347534 -75.2481 118.508835 50.664421 -60.212475 10.431855 30.676958 -0.065241 -0.109986 -2.290898 1.370583 12.66798 17.636629 -26.32271 52.411175 -19.466656 -14.395596 29.410378 -0.0 -8.774821 -4e-06 15.909039 -18.069036 6.236958 -0.609776 -1.795652 -3.889325 -4.807088 -11.046805 -2.937852 7e-06 -20.976006 -1e-06 -5.019971 -25.033548 -4.03188 6e-06 -0.0 1e-06 -10.634535 -5.686972 -3.565588 10.573272 -17.922947 -3.113901 2e-06 -13.821204 -0.0 -0.501775 -31.181494 -4.027016 -11.421231 -59.686512 7.607553 -13.982712 -7.150196 -2.875041 13.772727 -8.401489 -3.218243 0.347738 -34.211536 0.77165 -0.963027 -17.73336 2.621017 2e-06 2e-06 1e-06 -17.346416 -20.095213 -4.201779 21.757555 -1.638375 3.866428 -0.0 -6.338821 -0.0 -1.69759 -22.591738 -6.194006 -0.0 -2e-06 -2e-06 46.544933 -78.151978 150.998535 39.564415 -64.546356 -5.89359 32.021206 0.037992 0.095438 -0.136035 0.020278 9.524248 22.182108 -20.375891 49.933308 -16.701811 -16.743528 28.476526 -5e-06 -12.690599 -2e-06 16.037455 -17.505342 2.594372 -0.105921 -1.513857 -4.27588 -5.03904 -5.612872 -2.953557 5e-06 -11.020524 -2e-06 -6.111297 -15.89533 -3.840468 -0.0 -1e-06 -0.0 -10.283369 -5.680288 -4.341838 11.028291 -11.302402 -2.372635 -1.384268 -14.238579 -6.320119 -0.625436 -26.924183 -3.827604 -4.140091 -49.633324 -3.773058 -13.708522 -7.363475 -3.720939 18.141146 -14.052736 -3.242673 8e-06 -18.787268 -3e-06 -0.42971 -8.456046 2.555502 1e-06 -1e-06 -0.0 -15.923528 -20.094479 -5.473586 30.419205 -7.190828 1.735925 4e-06 -8.162925 -1e-06 -1.8619 -22.861467 -6.16794 1e-06 -8e-06 0.0 -171.04158 -3.260216 -14.604488 5.743946 0.034868 0.071579 -77.429115 -2.319768 -11.572876 -4.124187 1.527621 2.201914 -1.0 0.0 -0.0 7.138543 -7.608618 -15.732864 8.432158 0.009203 -0.131761 -78.858376 -2.22092 -9.776545 -4.142799 0.538228 1.623909 -1.000003 1e-06 -0.0 
0.0 0.0 0.0 0.0 -0.0 0.0 -5.0387 99.728455 3.06714 91.307098 3.693977 89.833771 -2.560115 0.248363 0.21759 -11.92131 -0.412949 1.117875 19.814817 -1.874263 -0.95765 23.100639 1.829646 2.638362 -2.616489 -0.802332 -0.279069 -30.65807 0.385834 -1.442801 6e-06 0.0 -0.0 0.013937 0.011743 0.037568 0.017403 0.029801 0.046083 0.023327 -0.006773 0.031267 -102.325172 -75.281197 118.505493 50.669727 -60.146297 10.419073 30.726877 -0.050066 -0.120978 -2.293851 1.349733 12.665978 17.636625 -26.322725 52.411182 -19.46666 -14.395594 29.410381 -1e-06 -8.774821 -4e-06 15.911959 -18.055799 6.222921 -0.609776 -1.795654 -3.889326 -4.807087 -11.046809 -2.93785 4e-06 -20.976015 -1e-06 -5.019969 -25.033556 -4.031878 6e-06 -0.0 -0.0 -10.634533 -5.68697 -3.565586 10.573272 -17.922949 -3.113899 2e-06 -13.821205 -0.0 -0.501776 -31.181501 -4.027015 -11.428539 -59.651402 7.57866 -13.982711 -7.150198 -2.87504 13.772727 -8.401491 -3.218242 0.347734 -34.211544 0.771655 -0.963029 -17.733366 2.621018 0.0 3e-06 0.0 -17.346413 -20.095211 -4.201779 21.757555 -1.638375 3.866429 0.0 -6.338822 -1e-06 -1.697589 -22.591742 -6.194005 -0.0 -4e-06 -2e-06 46.426731 -78.136101 151.136536 39.606651 -64.492813 -6.067875 31.969707 0.012552 0.094893 -0.084767 0.016585 9.431355 22.182114 -20.375895 49.933308 -16.701809 -16.743528 28.47653 -3e-06 -12.6906 -3e-06 16.033155 -17.478636 2.600037 -0.10592 -1.513857 -4.275881 -5.039042 -5.612872 -2.953556 3e-06 -11.020525 -0.0 -6.111302 -15.895332 -3.840468 0.0 -0.0 -3e-06 -10.28337 -5.680288 -4.341837 11.028292 -11.302404 -2.372633 -1.384269 -14.238581 -6.320119 -0.625437 -26.924183 -3.827602 -4.162385 -49.612827 -3.760412 -13.708524 -7.363477 -3.72094 18.141146 -14.052739 -3.242672 6e-06 -18.78727 -2e-06 -0.429711 -8.456043 2.555503 1e-06 -1e-06 -1e-06 -15.923538 -20.094484 -5.473579 30.41921 -7.190825 1.735927 3e-06 -8.162927 -2e-06 -1.861902 -22.861473 -6.167943 -0.0 -5e-06 0.0 -171.081818 -3.281328 -14.596976 5.740555 0.035054 0.080242 -77.389236 -2.283438 -11.576134 -4.100417 1.524879 2.204733 -1.0 -0.0 -0.0 7.045053 -7.619149 -15.686614 8.544272 0.013253 -0.153633 -78.886917 -2.282039 -9.779183 -4.12438 0.532948 1.623956 -1.000002 0.0 0.0 
